{
  "accessors": [
    {
      "bufferView": 2,
      "componentType": 5126,
      "count": 433,
      "max": [
        0.11331727355718613,
        0.11331726610660553,
        0.11331727355718613
      ],
      "min": [
        -0.11331727355718613,
        -0.11331726610660553,
        -0.11331727355718613
      ],
      "type": "VEC3"
    },
    {
      "bufferView": 2,
      "byteOffset": 5196,
      "componentType": 5126,
      "count": 433,
      "max": [
        1.0,
        1.0,
        1.0
      ],
      "min": [
        -1.0,
        -1.0,
        -1.0
      ],
      "type": "VEC3"
    },
    {
      "bufferView": 1,
      "componentType": 5126,
      "count": 433,
      "max": [
        0.9999999403953552,
        1.0
      ],
      "min": [
        0.0,
        3.1487275009567384e-08
      ],
      "type": "VEC2"
    },
    {
      "bufferView": 0,
      "componentType": 5125,
      "count": 2184,
      "type": "SCALAR"
    }
  ],
  "asset": {
    "extras": {
      "author": "nyu_grad_alley_2020 (https://sketchfab.com/nyu_grad_alley_2020)",
      "license": "CC-BY-4.0 (http://creativecommons.org/licenses/by/4.0/)",
      "source": "https://sketchfab.com/3d-models/bowling-ball-01-da3a78d46abc4abfb699461b3421ff48",
      "title": "Bowling Ball 01"
    },
    "generator": "Sketchfab-12.68.0",
    "version": "2.0"
  },
  "bufferViews": [
    {
      "buffer": 0,
      "byteLength": 8736,
      "name": "floatBufferViews",
      "target": 34963
    },
    {
      "buffer": 0,
      "byteLength": 3464,
      "byteOffset": 8736,
      "byteStride": 8,
      "name": "floatBufferViews",
      "target": 34962
    },
    {
      "buffer": 0,
      "byteLength": 10392,
      "byteOffset": 12200,
      "byteStride": 12,
      "name": "floatBufferViews",
      "target": 34962
    }
  ],
  "buffers": [
    {
      "byteLength": 22592,
      "uri": "scene.bin"
    }
  ],
  "images": [
    {
      "uri": "textures/ball05_baseColor.jpeg"
    }
  ],
  "materials": [
    {
      "name": "ball05",
      "pbrMetallicRoughness": {
        "baseColorFactor": [
          0.85098,
          0.85098,
          0.85098,
          1.0
        ],
        "baseColorTexture": {
          "index": 0
        },
        "metallicFactor": 0.464,
        "roughnessFactor": 0.294
      }
    }
  ],
  "meshes": [
    {
      "name": "Object_0",
      "primitives": [
        {
          "attributes": {
            "NORMAL": 1,
            "POSITION": 0,
            "TEXCOORD_0": 2
          },
          "indices": 3,
          "material": 0,
          "mode": 4
        }
      ]
    }
  ],
  "nodes": [
    {
      "children": [
        1
      ],
      "matrix": [
        1.0,
        0.0,
        0.0,
        0.0,
        0.0,
        2.220446049250313e-16,
        -1.0,
        0.0,
        0.0,
        1.0,
        2.220446049250313e-16,
        0.0,
        0.0,
        0.0,
        0.0,
        1.0
      ],
      "name": "Sketchfab_model"
    },
    {
      "children": [
        2
      ],
      "name": "root"
    },
    {
      "children": [
        3
      ],
      "matrix": [
        1.0,
        0.0,
        0.0,
        0.0,
        0.0,
        2.220446049250313e-16,
        1.0,
        0.0,
        0.0,
        -1.0,
        2.220446049250313e-16,
        0.0,
        0.0,
        0.0,
        0.0,
        1.0
      ],
      "name": "GLTF_SceneRootNode"
    },
    {
      "children": [
        4
      ],
      "matrix": [
        1.0,
        0.0,
        0.0,
        0.0,
        0.0,
        1.0,
        0.0,
        0.0,
        0.0,
        0.0,
        1.0,
        0.0,
        20.89900016784668,
        0.49000000953674316,
        -40.25,
        1.0
      ],
      "name": "Ball05_0"
    },
    {
      "mesh": 0,
      "name": "Object_4"
    }
  ],
  "samplers": [
    {
      "magFilter": 9729,
      "minFilter": 9729,
      "wrapS": 10497,
      "wrapT": 10497
    }
  ],
  "scene": 0,
  "scenes": [
    {
      "name": "Sketchfab_Scene",
      "nodes": [
        0
      ]
    }
  ],
  "textures": [
    {
      "sampler": 0,
      "source": 0
    }
  ]
}
